<?xml version="1.0" encoding="UTF-8" standalone="no"?>
<!-- Generator: Gravit.io -->
<svg xmlns="http://www.w3.org/2000/svg" xmlns:xlink="http://www.w3.org/1999/xlink" style="isolation:isolate" viewBox="610 432.648 333 95.056" width="333pt" height="95.056pt"><defs><filter id="ScW3q3yFAfiMfCKADlNSF4b89bX7evtH" x="-200%" y="-200%" width="400%" height="400%" filterUnits="objectBoundingBox" color-interpolation-filters="sRGB"><feGaussianBlur xmlns="http://www.w3.org/2000/svg" in="SourceGraphic" stdDeviation="0"/><feOffset xmlns="http://www.w3.org/2000/svg" dx="5" dy="5" result="pf_100_offsetBlur"/><feFlood xmlns="http://www.w3.org/2000/svg" flood-color="#E18601" flood-opacity="1"/><feComposite xmlns="http://www.w3.org/2000/svg" in2="pf_100_offsetBlur" operator="in" result="pf_100_dropShadow"/><feBlend xmlns="http://www.w3.org/2000/svg" in="SourceGraphic" in2="pf_100_dropShadow" mode="normal"/></filter></defs><g filter="url(#ScW3q3yFAfiMfCKADlNSF4b89bX7evtH)"><path d="M 627.74 434 L 680.96 434 C 690.751 434 698.7 441.949 698.7 451.74 L 698.7 504.96 C 698.7 514.751 690.751 522.7 680.96 522.7 L 627.74 522.7 C 617.949 522.7 610 514.751 610 504.96 L 610 451.74 C 610 441.949 617.949 434 627.74 434 Z" style="stroke:none;fill:#E1AC01;stroke-miterlimit:10;"/></g><path d=" M 634.076 497.36 L 634.076 497.36 L 634.076 497.36 Q 634.292 495.056 635.516 492.788 L 635.516 492.788 L 635.516 492.788 Q 636.74 490.52 638.396 489.152 L 638.396 489.152 L 638.396 489.152 Q 646.244 493.904 652.94 493.904 L 652.94 493.904 L 652.94 493.904 Q 656.036 493.904 657.656 492.428 L 657.656 492.428 L 657.656 492.428 Q 659.276 490.952 659.276 488.864 L 659.276 488.864 L 659.276 488.864 Q 659.276 485.264 654.452 483.104 L 654.452 483.104 L 645.956 479.504 L 645.956 479.504 Q 635.732 475.04 635.732 466.328 L 635.732 466.328 L 635.732 466.328 Q 635.732 459.776 640.7 455.6 L 640.7 455.6 L 640.7 455.6 Q 645.668 451.424 653.768 451.424 L 653.768 451.424 L 653.768 451.424 Q 661.868 451.424 669.788 455.528 L 669.788 455.528 L 669.788 455.528 Q 669.428 460.496 666.044 463.808 L 666.044 463.808 L 666.044 463.808 Q 658.7 460.28 653.084 460.28 L 653.084 460.28 L 653.084 460.28 Q 650.132 460.28 648.548 461.684 L 648.548 461.684 L 648.548 461.684 Q 646.964 463.088 646.964 464.888 L 646.964 464.888 L 646.964 464.888 Q 646.964 467.768 651.428 469.712 L 651.428 469.712 L 660.068 473.312 L 660.068 473.312 Q 665.252 475.544 668.096 479.18 L 668.096 479.18 L 668.096 479.18 Q 670.94 482.816 670.94 487.424 L 670.94 487.424 L 670.94 487.424 Q 670.94 494.264 666.08 498.512 L 666.08 498.512 L 666.08 498.512 Q 661.22 502.76 652.148 502.76 L 652.148 502.76 L 652.148 502.76 Q 647.684 502.76 642.824 501.32 L 642.824 501.32 L 642.824 501.32 Q 637.964 499.88 634.076 497.36 Z " fill="rgb(0,0,0)"/><path d=" M 675.692 515.888 L 677.708 515.924 L 677.672 513.548 L 677.672 504.908 L 677.672 504.908 Q 677.672 504.224 677.852 500.552 L 677.852 500.552 L 677.852 500.552 Q 675.764 503.144 672.596 504.476 L 672.596 504.476 L 672.596 504.476 Q 671.408 503.792 671.084 502.388 L 671.084 502.388 L 671.084 502.388 Q 676.196 499.22 677.816 495.512 L 677.816 495.512 L 677.816 495.512 Q 678.536 495.332 679.454 495.332 L 679.454 495.332 L 679.454 495.332 Q 680.372 495.332 681.128 495.512 L 681.128 495.512 L 681.128 513.548 L 681.092 515.924 L 683.18 515.888 L 685.7 515.888 L 685.7 515.888 Q 685.88 516.68 685.88 517.346 L 685.88 517.346 L 685.88 517.346 Q 685.88 518.012 685.7 518.84 L 685.7 518.84 L 672.344 518.84 L 672.344 518.84 Q 672.164 518.012 672.164 517.346 L 672.164 517.346 L 672.164 517.346 Q 672.164 516.68 672.344 515.888 L 672.344 515.888 L 675.692 515.888 L 675.692 515.888 Z " fill="rgb(0,0,0)"/><defs><filter id="WPMMRh2EqJz5Scprx06nfWWBZ6hkRmsZ" x="-200%" y="-200%" width="400%" height="400%" filterUnits="objectBoundingBox" color-interpolation-filters="sRGB"><feGaussianBlur xmlns="http://www.w3.org/2000/svg" in="SourceGraphic" stdDeviation="0"/><feOffset xmlns="http://www.w3.org/2000/svg" dx="2" dy="2" result="pf_100_offsetBlur"/><feFlood xmlns="http://www.w3.org/2000/svg" flood-color="#E18601" flood-opacity="1"/><feComposite xmlns="http://www.w3.org/2000/svg" in2="pf_100_offsetBlur" operator="in" result="pf_100_dropShadow"/><feBlend xmlns="http://www.w3.org/2000/svg" in="SourceGraphic" in2="pf_100_dropShadow" mode="normal"/></filter></defs><g filter="url(#WPMMRh2EqJz5Scprx06nfWWBZ6hkRmsZ)"><path d=" M 727.536 480.096 L 727.536 480.096 L 727.536 480.096 Q 727.536 479.736 727.536 479.448 L 727.536 479.448 L 727.536 479.448 Q 727.536 475.416 726.708 473.4 L 726.708 473.4 L 726.708 473.4 Q 725.88 471.384 723.18 471.384 L 723.18 471.384 L 723.18 471.384 Q 720.48 471.384 719.364 474.012 L 719.364 474.012 L 719.364 474.012 Q 718.248 476.64 718.248 482.4 L 718.248 482.4 L 718.248 482.4 Q 718.248 488.16 719.868 490.572 L 719.868 490.572 L 719.868 490.572 Q 721.488 492.984 724.872 492.984 L 724.872 492.984 L 724.872 492.984 Q 728.256 492.984 732.792 489.888 L 732.792 489.888 L 732.792 489.888 Q 734.088 490.608 735.312 492.444 L 735.312 492.444 L 735.312 492.444 Q 736.536 494.28 736.896 495.864 L 736.896 495.864 L 736.896 495.864 Q 734.448 498.384 730.704 499.896 L 730.704 499.896 L 730.704 499.896 Q 726.96 501.408 723 501.408 L 723 501.408 L 723 501.408 Q 715.44 501.408 711.372 496.296 L 711.372 496.296 L 711.372 496.296 Q 707.304 491.184 707.304 482.004 L 707.304 482.004 L 707.304 482.004 Q 707.304 472.824 711.984 468.108 L 711.984 468.108 L 711.984 468.108 Q 716.664 463.392 723.036 463.392 L 723.036 463.392 L 723.036 463.392 Q 729.408 463.392 733.296 466.704 L 733.296 466.704 L 733.296 466.704 Q 737.184 470.016 737.184 475.2 L 737.184 475.2 L 737.184 475.2 Q 737.184 477.792 735.78 479.124 L 735.78 479.124 L 735.78 479.124 Q 734.376 480.456 731.82 480.456 L 731.82 480.456 L 731.82 480.456 Q 729.264 480.456 727.536 480.096 Z  M 741.504 469.44 L 741.504 469.44 L 741.504 469.44 Q 741.792 468 742.8 466.344 L 742.8 466.344 L 742.8 466.344 Q 743.808 464.688 744.816 463.896 L 744.816 463.896 L 744.816 463.896 Q 751.224 464.544 753.6 470.376 L 753.6 470.376 L 753.6 470.376 Q 756.336 463.968 762.672 463.968 L 762.672 463.968 L 762.672 463.968 Q 765.048 463.968 767.352 464.544 L 767.352 464.544 L 767.352 464.544 Q 767.352 466.632 766.632 469.548 L 766.632 469.548 L 766.632 469.548 Q 765.912 472.464 764.688 474.552 L 764.688 474.552 L 764.688 474.552 Q 763.176 474.048 761.088 473.904 L 761.088 473.904 L 761.088 473.904 Q 757.272 473.904 754.896 477.792 L 754.896 477.792 L 754.896 500.328 L 754.896 500.328 Q 752.736 500.76 749.64 500.76 L 749.64 500.76 L 749.64 500.76 Q 746.544 500.76 744.168 500.328 L 744.168 500.328 L 744.168 476.856 L 744.168 476.856 Q 744.168 471.456 741.504 469.44 Z  M 801.408 495.36 L 801.408 495.36 L 801.408 495.36 Q 801.12 496.8 800.076 498.456 L 800.076 498.456 L 800.076 498.456 Q 799.032 500.112 798.024 500.904 L 798.024 500.904 L 798.024 500.904 Q 793.056 500.688 790.536 497.088 L 790.536 497.088 L 790.536 497.088 Q 785.928 501.408 780.348 501.408 L 780.348 501.408 L 780.348 501.408 Q 774.768 501.408 771.924 498.096 L 771.924 498.096 L 771.924 498.096 Q 769.08 494.784 769.08 490.536 L 769.08 490.536 L 769.08 490.536 Q 769.08 484.416 773.148 481.248 L 773.148 481.248 L 773.148 481.248 Q 777.216 478.08 783.264 478.08 L 783.264 478.08 L 783.264 478.08 Q 785.64 478.08 788.664 478.296 L 788.664 478.296 L 788.664 476.712 L 788.664 476.712 Q 788.664 471.96 783.768 471.96 L 783.768 471.96 L 783.768 471.96 Q 780.672 471.96 773.04 474.264 L 773.04 474.264 L 773.04 474.264 Q 770.88 471.744 770.448 466.776 L 770.448 466.776 L 770.448 466.776 Q 773.832 465.336 778.476 464.472 L 778.476 464.472 L 778.476 464.472 Q 783.12 463.608 786.72 463.608 L 786.72 463.608 L 786.72 463.608 Q 792.12 463.608 795.756 466.596 L 795.756 466.596 L 795.756 466.596 Q 799.392 469.584 799.392 475.848 L 799.392 475.848 L 799.392 490.536 L 799.392 490.536 Q 799.392 493.92 801.408 495.36 Z  M 783.048 493.416 L 783.048 493.416 L 783.048 493.416 Q 785.856 493.416 788.664 491.04 L 788.664 491.04 L 788.664 485.064 L 788.664 485.064 Q 787.08 484.992 784.344 484.992 L 784.344 484.992 L 784.344 484.992 Q 779.52 484.992 779.52 489.816 L 779.52 489.816 L 779.52 489.816 Q 779.52 491.328 780.492 492.372 L 780.492 492.372 L 780.492 492.372 Q 781.464 493.416 783.048 493.416 Z  M 827.04 463.752 L 827.04 463.752 Q 833.232 463.752 836.508 468.72 L 836.508 468.72 L 836.508 468.72 Q 839.784 473.688 839.784 482.22 L 839.784 482.22 L 839.784 482.22 Q 839.784 490.752 834.996 495.864 L 834.996 495.864 L 834.996 495.864 Q 830.208 500.976 822.288 500.976 L 822.288 500.976 L 822.288 500.976 Q 814.368 500.976 808.104 498.528 L 808.104 498.528 L 808.104 447.84 L 808.608 447.336 L 812.64 447.336 L 812.64 447.336 Q 815.88 447.336 817.248 448.812 L 817.248 448.812 L 817.248 448.812 Q 818.616 450.288 818.616 453.816 L 818.616 453.816 L 818.616 466.344 L 818.616 466.344 Q 822.576 463.752 827.04 463.752 L 827.04 463.752 L 827.04 463.752 Z  M 823.944 472.392 L 823.944 472.392 L 823.944 472.392 Q 820.92 472.392 818.616 474.912 L 818.616 474.912 L 818.616 492.912 L 818.616 492.912 Q 820.56 493.272 822.288 493.272 L 822.288 493.272 L 822.288 493.272 Q 828.84 493.272 828.84 482.04 L 828.84 482.04 L 828.84 482.04 Q 828.84 472.536 823.944 472.392 Z  M 865.488 463.752 L 865.488 463.752 Q 871.68 463.752 874.956 468.72 L 874.956 468.72 L 874.956 468.72 Q 878.232 473.688 878.232 482.22 L 878.232 482.22 L 878.232 482.22 Q 878.232 490.752 873.444 495.864 L 873.444 495.864 L 873.444 495.864 Q 868.656 500.976 860.736 500.976 L 860.736 500.976 L 860.736 500.976 Q 852.816 500.976 846.552 498.528 L 846.552 498.528 L 846.552 447.84 L 847.056 447.336 L 851.088 447.336 L 851.088 447.336 Q 854.328 447.336 855.696 448.812 L 855.696 448.812 L 855.696 448.812 Q 857.064 450.288 857.064 453.816 L 857.064 453.816 L 857.064 466.344 L 857.064 466.344 Q 861.024 463.752 865.488 463.752 L 865.488 463.752 L 865.488 463.752 Z  M 862.392 472.392 L 862.392 472.392 L 862.392 472.392 Q 859.368 472.392 857.064 474.912 L 857.064 474.912 L 857.064 492.912 L 857.064 492.912 Q 859.008 493.272 860.736 493.272 L 860.736 493.272 L 860.736 493.272 Q 867.288 493.272 867.288 482.04 L 867.288 482.04 L 867.288 482.04 Q 867.288 472.536 862.392 472.392 Z  M 898.464 492.48 L 898.464 492.48 L 900.552 492.48 L 900.552 492.48 Q 901.416 494.784 901.416 496.908 L 901.416 496.908 L 901.416 496.908 Q 901.416 499.032 901.2 499.968 L 901.2 499.968 L 901.2 499.968 Q 896.88 500.688 892.92 500.688 L 892.92 500.688 L 892.92 500.688 Q 888.96 500.688 886.944 498.384 L 886.944 498.384 L 886.944 498.384 Q 884.928 496.08 884.928 491.04 L 884.928 491.04 L 884.928 447.84 L 885.432 447.336 L 889.608 447.336 L 889.608 447.336 Q 892.776 447.336 894.108 448.812 L 894.108 448.812 L 894.108 448.812 Q 895.44 450.288 895.44 453.816 L 895.44 453.816 L 895.44 489.096 L 895.44 489.096 Q 895.44 492.48 898.464 492.48 Z  M 935.184 485.856 L 935.184 485.856 L 916.104 485.856 L 916.104 485.856 Q 916.32 489.312 917.832 491.22 L 917.832 491.22 L 917.832 491.22 Q 919.344 493.128 923.16 493.128 L 923.16 493.128 L 923.16 493.128 Q 926.976 493.128 932.232 490.896 L 932.232 490.896 L 932.232 490.896 Q 934.464 493.056 935.184 497.304 L 935.184 497.304 L 935.184 497.304 Q 929.352 501.408 921.072 501.408 L 921.072 501.408 L 921.072 501.408 Q 916.608 501.408 913.368 499.86 L 913.368 499.86 L 913.368 499.86 Q 910.128 498.312 908.4 495.576 L 908.4 495.576 L 908.4 495.576 Q 905.232 490.32 905.232 482.112 L 905.232 482.112 L 905.232 482.112 Q 905.232 473.904 909.192 468.648 L 909.192 468.648 L 909.192 468.648 Q 913.152 463.392 920.64 463.392 L 920.64 463.392 L 920.64 463.392 Q 928.128 463.392 932.124 467.676 L 932.124 467.676 L 932.124 467.676 Q 936.12 471.96 936.12 478.656 L 936.12 478.656 L 936.12 478.656 Q 936.12 482.4 935.184 485.856 Z  M 926.184 477.576 L 926.184 477.576 Q 926.184 474.696 924.96 472.86 L 924.96 472.86 L 924.96 472.86 Q 923.736 471.024 921.18 471.024 L 921.18 471.024 L 921.18 471.024 Q 918.624 471.024 917.436 472.824 L 917.436 472.824 L 917.436 472.824 Q 916.248 474.624 916.032 478.44 L 916.032 478.44 L 926.184 478.44 L 926.184 477.576 L 926.184 477.576 Z " fill="rgb(225,172,1)"/></g></svg>